<?xml version="1.0" encoding="utf-8"?>
<!-- Generator: Adobe Illustrator 16.0.0, SVG Export Plug-In . SVG Version: 6.00 Build 0)  -->
<!DOCTYPE svg PUBLIC "-//W3C//DTD SVG 1.1//EN" "http://www.w3.org/Graphics/SVG/1.1/DTD/svg11.dtd">
<svg version="1.1" id="_x3C_Layer_x3E_" xmlns="http://www.w3.org/2000/svg" xmlns:xlink="http://www.w3.org/1999/xlink" x="0px"
	 y="0px" width="1347px" height="517px" viewBox="0 0 1347 517" enable-background="new 0 0 1347 517" xml:space="preserve">
<filter  id="AI_GaussianBlur_4">
	<feGaussianBlur  stdDeviation="4"></feGaussianBlur>
</filter>
<g>
	<polygon fill="#009250" points="236.375,366.281 1013.188,371.625 1338.875,432.375 215.563,508.594 9.125,371.625 
		203.188,366.281 	"/>
	<path fill="#4E8837" d="M49.625,380.625c-8.575-1.524-11.816-0.57-15.68-8.298c-1.782-3.563,4.763-13.368,5.722-17.441
		c2.16-9.179,3.807-10.052,11.647-15.496c2.313-1.606,5.016-14.72,6.327-17.968c5.236-12.977,5.317-26.158,11.205-39.071
		c2.789-6.118,6.593-8.754,10.03-14.226c4.642-7.39,2.38-12.272,0.053-19.92c-2.113-6.943,21.091-21.226,23.01-29.861
		c1.127-5.071,2.053-11.346-0.169-16.234c-3.115-6.855-6.926-11.536-4.966-18.816c3.729-13.85,8.251-24.837,20.042-34.137
		c13.083-10.318,24.751-3.871,39.375-4.785c-3.821-5.095-6.75-7.642-6.75-13.98c0-6.023-0.083-11.972-0.417-17.985
		c-0.576-10.365,1.946-25.556,7.026-34.549c5.992-10.608,13.937-20.113,26.859-22.924c4.979-1.083,10.716,0.982,13.781,5.348
		c1.663,2.368,2.206,6.619,3.125,9.375c0.891,2.673,4.942,5.051,7,6.938c-0.606-14.251,0.385-30.094,10.897-41.091
		c10.411-10.891,10.816-27.102,29.541-27.637c9.812-0.28,14.508-2.803,20.016,5.339c4.628,6.842,10.73,12.563,16.348,18.604
		c3.15,3.387,11.894-2.489,15.899,1.654c8.65,8.948,9.249,7.577,21.432,4.475c6.148-1.565,15.225,0.997,21.571,1.498
		c4.361,0.344,8.278,15.268,11.952,18.033c12.803,9.635,30.947,1.768,44.933,1.368c14.26-0.408,30.576,5.595,26.646,22.396
		c-2.268,9.693,2.987,6.525,9,12.799c5.698,5.945,15.17,2.273,23.026,1.548c2.622-0.242,10.073,6.734,13.323,8.317
		c9.509,4.633,12.942,9.447,21.588,3.21c7.658-5.523,12.044-3.73,21.528-2.731c7.182,0.756,14.432,0.025,20.141,4.593
		c11.427,9.142,27.161,12.43,41.775,13.631c7.292,0.6,14.97,0.478,22.071,2.377c5.01,1.34,10.803,3.027,14.694,6.641
		c2.853,2.65,4.875,15.361,0.442,17.716c-4.138,2.199-19.795-2.861-24.214-3.5c-19.153-2.769-38.307-5.537-57.46-8.305
		c-41.191-5.954-82.383-11.908-123.574-17.862c-5.101-0.737-15.925-4.564-20.985-2.924c-11.4,3.695-22.8,7.389-34.201,11.084
		c-38.046,12.331-76.093,24.661-114.14,36.992c-8.466,2.744-7.774,1.937-7.559,10.794c0.404,16.697,0.809,33.394,1.213,50.091
		c0.985,40.673,1.97,81.347,2.956,122.02c0.039,1.618,1.493,11.322,0.132,12.409c-10.016,7.997-20.032,15.994-30.048,23.991
		c-7.115,5.681-15.127,5.374-23.526,1.723c-12.766-5.551-16.664,7.449-26.604,10.248c-2.97,0.836-26.848,0.689-25.99-2.958
		c1.551-6.59,3.869-10.064-4.385-11.948c-4.157-0.948-10.22,0.123-14.411,0.243c-10.052,0.287-20.102,0.612-30.152,0.953
		C73.184,382.639,55.171,387.103,49.625,380.625z"/>
	<path fill="#008837" d="M908.563,178.969c5.658-7.38,9.328-16.238,18.686-17.889c4.646-0.82,9.653-2.361,14.388-2.361
		c7.824,0,6.343-3.783,8.068-11.157c2.598-11.101,10.203-14.84,19.187-19.923c3.833-2.168,8.517-5.122,12.797-6.045
		c6.342-1.367,8.254,1.713,12.647-4.038c5.596-7.324,4.82-18.98,15.509-21.831c6.954-1.854,16.043-13.218,24.136-3.881
		c4.042,4.665,6.629,7.275,8.177,13.156c1.875,7.127,6.082,6.159,9.844,11.809c5.378,8.079,3.164,19.2,2.813,27.563
		c14.195-6.495,29.825,23.419,18,31.5c4.864-0.404,5.723,3.721,9.563,5.91c3.02,1.722,8.307,1.079,10.681,3.705
		c8.238,9.111,2.348,12.788-6.462,18.233c3.68,5.487,17.764,3.618,24.188,6.188c10.087,4.035,16.724,6.59,12.656,18.277
		c7.88-0.394,13.097-0.078,20.721,1.921c8.472,2.222,3.981,11.401,3.186,16.642c-0.921,6.065,1.931,12.132,4.662,17.385
		c3.49,6.713,11.799,9.211,13.057,17.072c1.177,7.356,6.289,10.292,10.125,16.172c4.711,7.221,3.656,15.029,3.656,23.223
		c0,7.046,9.514,8.077,14.335,10.36c7.344,3.479,12.385,6.543,15.645,14.15c2.466,5.755,6.302,10.977,6.302,17.624
		c0,3.561,0.745,7.95,0,11.424c-0.795,3.708-5.029,7.272-4.693,11.136c1.139,13.092-18.968,14.808-29.371,15.695
		c-19.334,1.65-38.667,3.301-58.001,4.951c-11.177,0.954-23.751-3.597-34.648-5.659c-19.212-3.638-38.423-7.275-57.635-10.913
		c-9.272-1.756-6.058-6.673-6.058-15.896c0-40.592,0-81.184,0-121.776c0-13.077,0-26.153,0-39.23c0-4.78-19.827-5.026-23.853-5.641
		c-33.769-5.16-67.536-10.32-101.304-15.48C902.563,187.219,905.563,183.094,908.563,178.969z"/>
	<polygon fill="#002D12" stroke="#000000" stroke-width="2.5335" stroke-linejoin="round" points="915.031,178.969 914.469,172.219 
		937.813,158.719 943.719,161.531 937.813,174.746 922.344,191.344 922.344,184.309 	"/>
	<polygon fill="#002D12" stroke="#000000" stroke-width="2.5335" stroke-linejoin="round" points="959.188,138.469 958.625,135.934 
		957.219,133.684 958.063,130.031 959.188,126.371 962,124.121 964.531,121.594 969.875,119.906 975.219,118.781 978.031,117.656 
		982.813,115.684 989,115.121 994.906,115.121 1000.25,118.219 1007.281,121.594 1010.938,127.781 1015.156,133.684 
		1010.938,137.621 1006.719,141.844 997.719,143.246 996.031,146.059 992.938,146.621 989.563,147.184 983.656,150.844 
		976.344,150.844 969.875,150.844 967.344,146.621 965.656,143.809 960.875,140.719 956.094,139.031 	"/>
	<polygon fill="#002D12" stroke="#000000" stroke-width="2.5335" stroke-linejoin="round" points="1026.406,171.094 
		1028.656,151.969 1031.75,142.406 1038.219,141.844 1044.969,141.844 1054.813,155.059 1055.656,160.969 1048.906,173.344 
		1043,176.996 1026.406,177.559 1019.938,174.746 	"/>
	<polygon fill="#002D12" stroke="#000000" stroke-width="2.5335" stroke-linejoin="round" points="1052,212.156 1057.906,199.781 
		1064.375,195.559 1073.938,192.469 1080.406,192.469 1081.813,205.121 1075.063,214.684 1068.031,218.059 1058.469,218.059 
		1052,215.246 1048.344,215.809 	"/>
	<polygon fill="#002D12" stroke="#000000" stroke-width="2.5335" stroke-linejoin="round" points="1081.25,236.059 
		1077.594,223.406 1083.5,213.844 1089.969,212.719 1097.281,212.719 1103.188,225.934 1100.094,232.406 1087.719,235.496 
		1077.594,236.621 	"/>
	<polygon fill="#002D12" stroke="#000000" stroke-width="2.5335" stroke-linejoin="round" points="1117.531,250.969 
		1120.344,243.656 1130.469,240.844 1140.031,240.844 1134.688,250.121 1120.906,254.344 1117.531,254.344 	"/>
	<polygon fill="#002D12" stroke="#000000" stroke-width="2.5335" stroke-linejoin="round" points="1152.688,336.469 
		1141.719,312.281 1137.781,302.156 1131.031,293.156 1137.781,299.625 1145.375,312.281 1151.281,317.625 1159.156,335.906 
		1168.719,346.031 1175.75,351.375 1156.063,355.594 1149.594,349.688 1153.25,343.219 	"/>
	<polygon fill="#002D12" stroke="#000000" stroke-width="2.5335" stroke-linejoin="round" points="293.75,74.621 290.656,68.719 
		297.688,66.469 300.219,60.281 301.906,51.559 312.594,52.121 314.563,53.809 321.594,58.031 335.938,69.281 342.969,79.969 
		346.063,96.559 343.531,99.656 340.719,102.746 337.625,104.996 338.188,107.531 335.938,112.871 335.375,118.219 333.406,120.469 
		329.469,118.219 325.813,115.121 324.125,112.871 322.156,109.781 321.031,108.656 321.031,105.559 323.281,103.309 
		324.125,96.559 326.938,93.184 323.281,86.434 319.906,77.719 306.688,72.934 303.875,74.621 299.656,79.406 	"/>
	<polygon fill="#002D12" stroke="#000000" stroke-width="2.5335" stroke-linejoin="round" points="210.781,88.969 206.844,76.594 
		209.656,63.371 212.75,50.719 215.563,40.871 232.438,37.219 241.156,39.469 244.813,46.219 245.375,52.121 242.563,58.594 
		235.813,68.719 235.813,71.809 246.5,81.934 253.25,84.184 247.344,99.656 243.688,100.781 224,110.344 220.906,110.906 
		217.531,103.871 213.875,98.531 217.531,91.219 	"/>
	<polygon fill="#002D12" stroke="#000000" stroke-width="2.5335" stroke-linejoin="round" points="144.125,170.531 144.125,157.871 
		137.094,148.594 137.094,145.496 133.438,135.934 135.969,123.559 146.094,113.434 152,106.684 168.031,96.559 181.25,83.059 
		200.656,88.969 198.406,124.121 176.469,140.719 166.906,150.844 154.25,167.434 151.438,176.996 144.969,180.094 141.313,176.996 
		137.656,171.094 144.125,161.531 	"/>
	<polygon fill="#002D12" stroke="#000000" stroke-width="2.5335" stroke-linejoin="round" points="48.5,339 38.375,327.188 
		41.188,301.313 40.625,292.031 46.531,282.469 49.625,275.719 59.75,268.688 72.125,262.219 78.313,254.906 85.344,258.559 
		75.781,278.25 69.313,287.813 63.969,300.188 60.875,310.313 60.875,319.313 54.969,332.531 54.969,339 51.875,341.813 
		45.406,342.656 	"/>
	<polygon fill="#002D12" stroke="#000000" stroke-width="2.5335" stroke-linejoin="round" points="85.906,376.406 85.344,363.469 
		85.344,357.281 85.344,350.813 81.688,341.25 84.781,334.781 87.594,328.313 94.344,324.656 97.156,318.188 100.813,312.281 
		96.594,305.531 96.594,299.625 96.594,293.156 102.5,279.938 102.5,273.469 105.031,267 107.844,261.094 117.969,257.434 
		127.531,254.344 134.844,259.684 134.844,275.719 135.406,282.469 128.656,289.5 119.375,295.406 119.938,301.313 122.75,310.875 
		129.5,317.625 120.5,327.188 116.844,330 113.75,337.031 117.406,343.219 121.063,349.688 124.719,358.688 131.188,365.156 
		125.281,374.719 119.375,374.719 	"/>
	<polygon fill="#AD9D87" stroke="#000000" stroke-width="2.5335" stroke-linejoin="round" points="210.219,164.621 385.438,111.469 
		1024.719,206.809 1024.719,388.219 389.375,420.563 224,350.25 224,188.809 	"/>
	<g>
		<path d="M137.096,277.634c2.403-0.232,4.803-0.358,7.201-0.449c1.199-0.044,2.398-0.093,3.596-0.106
			c1.198-0.016,2.396-0.061,3.593-0.052c0.049,0.001,0.096,0.005,0.143,0.014l0.094,0.02l3.266,0.643
			c1.088,0.216,2.169,0.463,3.254,0.692c2.171,0.455,4.329,0.96,6.489,1.462c0.164,0.038,0.314,0.103,0.449,0.187l0.019,0.013
			c3.385,2.141,6.735,4.336,10.054,6.579l0.058,0.039c0.29,0.196,0.477,0.49,0.547,0.806c1.102,4.998,2.121,10.016,3.253,15.005
			l0.009,0.039c0.038,0.165,0.026,0.333-0.023,0.482c-1.113,3.35-2.21,6.705-3.275,10.069l-0.151-0.741l7.199,8.814l-0.752-0.176
			l13.019-5.509l1.627-0.688c0.556-0.229,1.055-0.459,1.657-0.688l3.339-1.157l6.679-2.313l0.007-0.002l0.032-0.009l16.638-3.158
			c0.029-0.005,0.057,0.014,0.063,0.043c0.006,0.028-0.013,0.056-0.041,0.063l-16.55,3.592l0.039-0.011l-6.616,2.487l-3.308,1.243
			c-0.493,0.203-1.061,0.477-1.587,0.711l-1.609,0.73l-12.871,5.847c-0.262,0.119-0.563,0.045-0.741-0.162l-0.011-0.014
			l-7.426-8.623c-0.177-0.205-0.227-0.477-0.158-0.72l0.007-0.021c0.998-3.386,1.963-6.78,2.913-10.181l-0.015,0.521
			c-1.305-4.948-2.724-9.867-4.059-14.808l0.605,0.844c-3.431-2.068-6.831-4.186-10.196-6.357l0.468,0.199
			c-2.153-0.529-4.307-1.056-6.449-1.632c-1.071-0.286-2.147-0.555-3.215-0.854l-3.203-0.904l0.237,0.033
			c-1.194-0.085-2.386-0.224-3.579-0.333c-1.193-0.107-2.384-0.25-3.576-0.388c-2.383-0.278-4.766-0.592-7.143-1.012
			c-0.03-0.005-0.049-0.033-0.044-0.063C137.052,277.654,137.072,277.637,137.096,277.634z"/>
	</g>
	<g>
		<path d="M253.25,87.131c1.243-0.159,2.486-0.267,3.729-0.384c1.243-0.126,2.486-0.226,3.729-0.313
			c1.243-0.102,2.486-0.161,3.729-0.241l1.805-0.104l1.858-0.18c1.238-0.127,2.478-0.227,3.717-0.328
			c1.24-0.098,2.479-0.214,3.719-0.291c2.48-0.188,4.964-0.296,7.449-0.373l0.043-0.001c0.587-0.018,1.106,0.306,1.366,0.791
			c1.105,2.073,2.147,4.181,3.217,6.273l0.031,0.061c0.094,0.184,0.136,0.387,0.132,0.581l-0.155,6.473l-0.058-0.364l2.892,9.628
			l-0.332-0.471l3.597,2.89l-0.602-0.178l7.043-0.405l0.036-0.002c0.118-0.006,0.232,0.02,0.33,0.07l6.381,3.272l0.026,0.013
			c0.126,0.064,0.211,0.178,0.246,0.305l3.308,12.478c0.021,0.08-0.027,0.162-0.107,0.184c-0.077,0.021-0.156-0.024-0.181-0.099
			l-4.005-12.272l0.271,0.318l-6.556-2.907l0.366,0.067l-7.019,0.72c-0.211,0.022-0.412-0.039-0.571-0.155l-0.032-0.023
			l-3.715-2.735c-0.153-0.113-0.261-0.265-0.319-0.432l-0.013-0.039l-3.296-9.497c-0.035-0.101-0.053-0.204-0.056-0.306
			l-0.001-0.059l-0.155-6.473l0.164,0.641c-1.18-2.033-2.388-4.05-3.532-6.102l1.409,0.789c-2.481,0.173-4.963,0.313-7.449,0.375
			c-1.242,0.049-2.486,0.057-3.729,0.083c-1.244,0.024-2.487,0.049-3.731,0.047l-1.867,0.007c-0.741-0.012-1.276-0.056-1.924-0.093
			c-1.243-0.081-2.486-0.14-3.729-0.241c-1.243-0.087-2.486-0.187-3.729-0.313c-1.243-0.117-2.486-0.225-3.729-0.384
			c-0.083-0.01-0.142-0.086-0.131-0.169C253.128,87.192,253.184,87.14,253.25,87.131z"/>
	</g>
	<polyline fill="none" stroke="#000000" stroke-width="2.5335" stroke-linejoin="round" points="224.563,188.246 392.469,142.406 
		1021.625,219.184 	"/>
	
		<line fill="none" stroke="#000000" stroke-width="2.5335" stroke-linejoin="round" x1="478.25" y1="178.969" x2="725.188" y2="204.559"/>
	
		<line fill="none" stroke="#000000" stroke-width="2.5335" stroke-linejoin="round" x1="480.5" y1="200.344" x2="725.188" y2="219.184"/>
	
		<line fill="none" stroke="#000000" stroke-width="2.5335" stroke-linejoin="round" x1="476.844" y1="219.184" x2="725.188" y2="236.059"/>
	
		<line fill="none" stroke="#000000" stroke-width="2.5335" stroke-linejoin="round" x1="473.469" y1="238.309" x2="725.188" y2="252.094"/>
	
		<line fill="none" stroke="#000000" stroke-width="2.5335" stroke-linejoin="round" x1="475.156" y1="257.996" x2="724.625" y2="268.125"/>
	
		<line fill="none" stroke="#000000" stroke-width="2.5335" stroke-linejoin="round" x1="480.5" y1="277.688" x2="725.188" y2="285.844"/>
	<polyline fill="none" stroke="#000000" stroke-width="2.5335" stroke-linejoin="round" points="725.75,197.809 725.75,359.813 
		798.875,361.5 798.875,248.996 	"/>
	<g>
		<path d="M224.563,340.625l41.455,10.412l20.721,5.23l20.702,5.304l41.403,10.606l20.696,5.327l20.682,5.38l-0.309-0.036
			l82.333-2.032l82.339-1.739c13.723-0.3,27.446-0.581,41.171-0.801l41.173-0.716c13.724-0.256,27.45-0.454,41.175-0.635
			l41.178-0.52l-41.158,1.371c-13.72,0.45-27.439,0.882-41.161,1.256l-41.163,1.175c-13.721,0.41-27.442,0.76-41.165,1.09
			l-82.332,2.042l-82.339,1.749c-0.104,0.002-0.214-0.012-0.31-0.036l-20.662-5.456l-20.648-5.509l-41.284-11.065l-20.642-5.532
			l-20.623-5.605L224.563,340.625z"/>
	</g>
	<polygon fill="#776652" stroke="#000000" stroke-width="2.5335" stroke-linejoin="round" points="225.688,349.688 389.938,398.344 
		1030.625,376.969 1030.625,388.219 390.781,420.563 225.688,365.156 	"/>
	<polyline fill="none" stroke="#000000" stroke-width="2.5335" stroke-linejoin="round" points="214.438,171.094 385.438,120.469 
		1024.719,207.934 	"/>
	
		<line fill="none" stroke="#000000" stroke-width="2.5335" stroke-linejoin="round" x1="391.906" y1="295.969" x2="725.188" y2="304.969"/>
	<polygon fill="#FFFFFF" stroke="#000000" stroke-width="2.5335" stroke-linejoin="round" points="724.063,362.063 
		1023.313,364.031 1114.438,368.813 813.219,371.063 	"/>
	<polygon stroke="#000000" stroke-width="2.5335" stroke-linejoin="round" points="690.594,406.219 763.156,422.813 
		1113.875,406.219 1112.188,400.875 1027.531,390.75 	"/>
	<polygon fill="#FFFFFF" stroke="#000000" stroke-width="2.5335" stroke-linejoin="round" points="723.5,362.063 812.094,369.938 
		812.094,385.969 723.5,375.281 	"/>
	<polygon fill="#FFFFFF" stroke="#000000" stroke-width="2.5335" stroke-linejoin="round" points="706.625,375.281 791.281,385.406 
		791.281,401.438 706.625,388.219 	"/>
	<polygon fill="#FFFFFF" stroke="#000000" stroke-width="2.5335" stroke-linejoin="round" points="690.031,388.219 766.813,401.438 
		766.813,421.688 690.594,404.531 	"/>
	<polygon fill="#FFFFFF" stroke="#000000" stroke-width="2.5335" stroke-linejoin="round" points="722.938,375.281 707.469,375.281 
		791.281,385.406 813.219,385.406 	"/>
	<polygon fill="#FFFFFF" stroke="#000000" stroke-width="2.5335" stroke-linejoin="round" points="705.5,388.219 690.031,388.219 
		766.813,401.438 791.281,401.438 	"/>
	<g>
		<path d="M129.455,252.627c1.574-3.504,3.386-6.853,5.25-10.168l1.431-2.466c0.475-0.823,0.957-1.642,1.458-2.448
			c0.988-1.621,1.976-3.244,3.004-4.839c0.267-0.413,0.7-0.653,1.154-0.689l0.032-0.002c2.176-0.158,4.356-0.262,6.535-0.375
			l3.293-0.127l3.274-0.05l6.55-0.062l1.638-0.015c0.565-0.003,1.046-0.035,1.682-0.014l3.273,0.083l-0.857,0.541
			c1.093-2.128,2.169-4.264,3.226-6.409l0.009-0.019c0.081-0.166,0.214-0.289,0.37-0.36l6.515-2.992l0.019-0.009
			c0.071-0.033,0.147-0.051,0.221-0.057l12.954-0.93l0.015-0.001l0.028,0l4.925,0.074l1.231,0.019
			c0.414,0.012,0.788,0.008,1.214-0.009l2.461-0.07l9.847-0.28h0.006c0.021,0,0.042,0.002,0.061,0.008l9.52,2.957
			c0.028,0.009,0.044,0.039,0.035,0.067c-0.008,0.028-0.038,0.043-0.065,0.036l-9.605-2.668l0.066,0.008l-9.834,0.576l-2.458,0.144
			c-0.394,0.029-0.841,0.047-1.248,0.046l-1.231,0.019l-4.925,0.074l0.043-0.001l-12.92,1.32l0.239-0.065l-6.422,3.187l0.379-0.378
			c-1.006,2.169-1.992,4.348-2.961,6.535c-0.147,0.331-0.467,0.531-0.806,0.54l-0.052,0.001l-3.273,0.083
			c-0.455,0.002-1.064,0.065-1.588,0.095l-1.633,0.127l-6.53,0.507l-6.508,0.484c-2.177,0.144-4.354,0.297-6.534,0.395l1.186-0.691
			c-1.034,1.592-2.109,3.158-3.183,4.724c-0.53,0.788-1.079,1.563-1.635,2.333l-1.663,2.315c-2.261,3.059-4.573,6.085-7.125,8.957
			c-0.02,0.022-0.054,0.024-0.077,0.004C129.45,252.674,129.446,252.648,129.455,252.627z"/>
	</g>
	<polyline fill="none" stroke="#000000" stroke-width="2.5335" stroke-linejoin="round" points="391.344,301.313 391.344,328.875 
		391.344,419.844 	"/>
	<polyline fill="none" stroke="#000000" stroke-width="2.5335" stroke-linejoin="round" points="385.438,112.871 391.344,144.371 
		391.344,304.406 	"/>
	
		<line fill="none" stroke="#000000" stroke-width="2.5335" stroke-linejoin="round" x1="225.125" y1="294.844" x2="391.344" y2="305.531"/>
	
		<line fill="none" stroke="#000000" stroke-width="2.5335" stroke-linejoin="round" x1="225.125" y1="198.371" x2="390.781" y2="159.281"/>
	<polygon fill="#FFFFFF" stroke="#000000" stroke-width="2.5335" stroke-linejoin="round" points="737.563,197.809 791.844,214.684 
		791.844,276.563 737.563,272.344 	"/>
	<polygon fill="#13007C" stroke="#000000" stroke-width="2.5335" stroke-linejoin="round" points="867.5,256.309 866.375,313.406 
		1000.25,315.094 1000.813,265.031 	"/>
	<polygon fill="#FFFFFF" stroke="#000000" stroke-width="2.5335" stroke-linejoin="round" points="504.969,180.094 504.969,297.938 
		697.906,303.844 697.906,200.906 	"/>
	<polygon fill="#FFFFFF" stroke="#000000" stroke-width="2.5335" stroke-linejoin="round" points="235.813,204.559 383.469,171.656 
		383.469,293.719 235.813,285.844 	"/>
	<polygon fill="#FFFFFF" stroke="#000000" stroke-width="2.5335" stroke-linejoin="round" points="401.469,171.656 479.375,179.531 
		479.375,297.938 401.469,295.406 	"/>
	<linearGradient id="SVGID_1_" gradientUnits="userSpaceOnUse" x1="414.1372" y1="222.1978" x2="468.2036" y2="252.2867">
		<stop  offset="0" style="stop-color:#808080"/>
		<stop  offset="0.5123" style="stop-color:#FFFFFF"/>
		<stop  offset="1" style="stop-color:#808080"/>
	</linearGradient>
	<polygon fill="url(#SVGID_1_)" stroke="#000000" stroke-width="2.5335" stroke-linejoin="round" points="411.594,180.656 
		471.5,185.996 471.5,290.625 409.625,287.813 409.625,180.656 	"/>
	<linearGradient id="SVGID_2_" gradientUnits="userSpaceOnUse" x1="286.4219" y1="202.5864" x2="343.13" y2="279.64">
		<stop  offset="0" style="stop-color:#808080"/>
		<stop  offset="0.5123" style="stop-color:#FFFFFF"/>
		<stop  offset="1" style="stop-color:#808080"/>
	</linearGradient>
	<polygon fill="url(#SVGID_2_)" stroke="#000000" stroke-width="2.5335" stroke-linejoin="round" points="373.344,191.344 
		373.344,283.594 242.563,278.25 242.563,212.156 373.344,185.434 	"/>
	<polygon fill="#3A3A3A" points="868.625,243.656 997.719,248.996 997.719,310.875 868.625,307.5 	"/>
	<g opacity="0.9" filter="url(#AI_GaussianBlur_4)">
		<polygon fill="#4C4C4C" points="694.813,174.746 809,216.934 1024.719,240.844 1024.719,297.375 851.469,288.375 694.25,175.871 
					"/>
	</g>
	<polygon fill="#FFFFFF" stroke="#000000" stroke-width="2.5335" stroke-linejoin="round" points="839.938,306.938 847.25,306.938 
		847.25,372.188 838.813,372.188 838.813,309.188 	"/>
	
		<rect x="876.5" y="308.063" fill="#FFFFFF" stroke="#000000" stroke-width="2.5335" stroke-linejoin="round" width="7.594" height="63"/>
	
		<rect x="944.844" y="314.531" fill="#FFFFFF" stroke="#000000" stroke-width="2.5335" stroke-linejoin="round" width="8.438" height="55.406"/>
	
		<rect x="985.344" y="315.656" fill="#FFFFFF" stroke="#000000" stroke-width="2.5335" stroke-linejoin="round" width="6.469" height="54.281"/>
	
		<rect x="1035.406" y="318.188" fill="#FFFFFF" stroke="#000000" stroke-width="2.5335" stroke-linejoin="round" width="6.469" height="52.313"/>
	
		<rect x="1068.031" y="320.438" fill="#FFFFFF" stroke="#000000" stroke-width="2.5335" stroke-linejoin="round" width="7.031" height="50.063"/>
	<polygon fill="#FFFFFF" stroke="#000000" stroke-width="2.5335" stroke-linejoin="round" points="820.531,299.625 
		1097.281,315.094 1097.844,321.563 820.531,307.5 	"/>
	<polygon fill="#FFFFFF" stroke="#000000" stroke-width="2.5335" stroke-linejoin="round" points="1103.75,247.871 
		1096.156,247.309 1096.156,368.813 1103.75,368.813 1103.75,250.121 	"/>
	<polygon fill="#FFFFFF" stroke="#000000" stroke-width="2.5335" stroke-linejoin="round" points="909.125,228.184 918.688,228.746 
		918.688,370.5 909.125,370.5 909.125,234.656 	"/>
	<polygon fill="#FFFFFF" stroke="#000000" stroke-width="2.5335" stroke-linejoin="round" points="1009.813,237.746 
		1017.406,239.434 1017.406,370.5 1009.813,370.5 1009.813,246.184 	"/>
	<polygon fill="#FFFFFF" stroke="#000000" stroke-width="2.5335" stroke-linejoin="round" points="810.969,216.934 820.531,217.496 
		820.531,370.5 810.969,370.5 	"/>
	<polygon fill="#937E65" stroke="#000000" stroke-width="2.5335" stroke-linejoin="round" points="811.531,370.5 811.531,385.406 
		790.719,385.406 790.719,401.438 766.25,401.438 766.25,409.313 766.25,421.125 1115.563,403.969 1115.563,368.25 	"/>
	<path fill="#76BD00" d="M243.688,346.594c-16.408-3.076-26.672,0.146-26.156,18.563c0.182,6.511,1.533,12.747,8.375,13.948
		c9.463,1.66,15.547,3.919,24.163,8.227c9.918,4.959,21.754,7.571,32.299,11.264c20.185,7.067,40.369,14.135,60.554,21.202
		c9.263,3.244,24.758,11.662,35.204,8.922c13.233-3.472,3.579-24.786,7.875-34.453c5.248-11.808-25.9-16.408-32.906-17.859
		c-5.263-1.091-13.125,1.248-17.542-2.489c-4.833-4.09-14.563-7.406-20.968-8.3C290.788,362.297,265.635,348.473,243.688,346.594z"
		/>
	<linearGradient id="SVGID_3_" gradientUnits="userSpaceOnUse" x1="512.5625" y1="241.5449" x2="689.4688" y2="241.5449">
		<stop  offset="0" style="stop-color:#808080"/>
		<stop  offset="0.5123" style="stop-color:#FFFFFF"/>
		<stop  offset="1" style="stop-color:#808080"/>
	</linearGradient>
	<polygon fill="url(#SVGID_3_)" stroke="#000000" stroke-width="2.5335" stroke-linejoin="round" points="512.563,188.809 
		689.469,206.809 689.469,294.281 512.563,289.5 	"/>
	<linearGradient id="SVGID_4_" gradientUnits="userSpaceOnUse" x1="744.3125" y1="240.4219" x2="783.4063" y2="240.4219">
		<stop  offset="0.2315" style="stop-color:#808080"/>
		<stop  offset="0.5123" style="stop-color:#FFFFFF"/>
		<stop  offset="0.734" style="stop-color:#808080"/>
	</linearGradient>
	<polygon fill="url(#SVGID_4_)" stroke="#808080" stroke-linejoin="round" points="744.313,212.156 744.313,264.469 
		783.406,268.688 783.406,240.281 	"/>
	<polygon stroke="#000000" stroke-width="2.5335" stroke-linejoin="round" points="216.969,365.719 215.563,374.156 
		219.219,378.938 230.469,381.75 240.594,386.531 290.656,406.219 317.375,415.219 342.406,425.906 361.531,431.813 
		366.313,430.125 376.438,430.125 385.438,427.031 384.031,419.438 378.125,422.813 371.656,422.813 366.313,419.438 
		362.656,419.438 360.406,416.906 357.313,416.906 354.5,418.031 344.375,416.906 338.188,416.906 336.5,412.125 332.281,411 
		333.406,406.219 335.375,403.125 330.594,409.313 318.781,407.344 313.156,407.344 308.656,405.094 302.469,405.094 
		296.563,401.438 293.75,397.219 286.438,394.406 283.063,394.406 277.438,394.406 268.719,389.625 263.938,386.531 
		258.594,386.531 251.844,386.531 246.5,382.313 242.563,378.938 231.875,374.719 231.875,372.75 224.563,376.406 219.781,370.5 	
		"/>
	<polygon fill="#B7A692" stroke="#000000" stroke-width="2.5335" stroke-linejoin="round" points="694.813,162.656 
		1024.719,206.809 1111.625,241.406 1111.625,248.996 808.438,218.059 695.375,175.871 694.813,175.309 	"/>
	<polygon fill="#937E65" stroke="#000000" stroke-width="2.5335" stroke-linejoin="round" points="809,205.684 1111.625,240.844 
		1111.625,248.996 809,218.059 	"/>
	
		<line fill="none" stroke="#000000" stroke-width="2.5335" stroke-linejoin="round" x1="810.406" y1="205.684" x2="694.813" y2="162.656"/>
</g>
</svg>
